<?xml version="1.0" encoding="utf-8"?>
<!-- Generator: Adobe Illustrator 25.2.1, SVG Export Plug-In . SVG Version: 6.00 Build 0)  -->
<svg version="1.1" id="Capa_1" xmlns="http://www.w3.org/2000/svg" xmlns:xlink="http://www.w3.org/1999/xlink" x="0px" y="0px"
	 viewBox="0 0 1280 1024" style="enable-background:new 0 0 1280 1024;" xml:space="preserve">
<style type="text/css">
	.st0{fill:#6F6F6E;}
	.st1{fill-rule:evenodd;clip-rule:evenodd;fill:#842032;}
	.st2{fill:url(#SVGID_1_);stroke:url(#SVGID_2_);stroke-width:1.5;stroke-miterlimit:10;}
	.st3{fill-rule:evenodd;clip-rule:evenodd;fill:url(#SVGID_3_);}
	.st4{fill-rule:evenodd;clip-rule:evenodd;fill:url(#SVGID_4_);}
</style>
<g>
	<g>
		<path class="st0" d="M107.2,772.1c2.7,6,7.7,8.4,11.8,8.4h1.1v1.3H89.9v-1.3h1.2c3.5,0,7-3,5.1-8.4l-8.6-22.8h-36l-9,22.9
			c-1.9,5.3,1.7,8.3,5.1,8.3h1.2v1.3H22v-1.3h1.2c4.1,0,9-2.5,11.7-8.4l30.3-72c0,0,5-10.8,5-13.8h1.2L107.2,772.1z M86.1,745.3
			L70,702.4l-16.8,42.9H86.1z"/>
		<path class="st0" d="M162.7,688.2c16.2,0,26.2,9.6,26.2,25.1c0,13-9.9,25.5-22.7,25.5c2.9,1.3,7,5.8,9.6,9.4
			c0,0,11.5,16.5,16.7,22.1c5.4,5.9,10.3,10.1,18.2,10.1v1.3h-7.3c-12.4,0-19.1-6.7-23.3-11.7c-1.5-1.8-16.6-23.8-17.6-25
			c-3.5-4.4-7.4-9-12.3-9v-1.2c0,0,3,0.1,7.1,0c6.9-0.2,17.1-1.8,20.9-13.9c0.6-1.9,0.9-5.1,0.9-8c-0.3-12.1-6.6-19.8-16.6-20.4
			c-6.8-0.4-14.9,0-16.7-0.1v79.7c0.1,4.7,3.9,8.4,8.6,8.4h1.7l0,1.3h-29.2l0-1.3h1.7c4.7,0,8.4-3.7,8.6-8.3V698
			c-0.1-4.7-3.9-8.4-8.6-8.4h-1.7l0-1.3L162.7,688.2z"/>
		<path class="st0" d="M289.1,772.1c2.7,6,7.7,8.4,11.8,8.4h1.1v1.3h-30.1v-1.3h1.2c3.5,0,7-3,5.1-8.4l-8.6-22.8h-36l-9,22.9
			c-1.9,5.3,1.7,8.3,5.1,8.3h1.2v1.3h-26.9v-1.3h1.2c4.1,0,9-2.5,11.7-8.4l30.3-72c0,0,5-10.8,5-13.8h1.2L289.1,772.1z M268,745.3
			l-16.1-42.9L235,745.3H268z"/>
		<path class="st0" d="M335.1,688.2c18.8,0,29.1,9,29.1,22.4c0,11.3-7.3,18.2-14.8,20.3c14.2,2.1,22.9,12.6,22.9,25.8
			c0,15.1-11.2,25.1-31.2,25.1h-32.6l0-1.3h1.7c4.7,0,8.4-3.7,8.6-8.3v-74.4c0-4.6-3.9-8.3-8.6-8.3h-1.7l0-1.3L335.1,688.2z
			 M340.7,777c13.7,0.1,21.6-7.7,21.6-21.2c0-20.1-17.2-23.4-30.2-23.4l0-1.3c8.2,0,22.1-2.4,22.1-19.6c-0.1-12.1-6.9-19.1-19.6-19
			h-7.1V777H340.7z"/>
		<path class="st0" d="M507.4,742.8l-1.6,21c-7,11.5-19,19.9-37.6,19.9c-28-0.1-47.8-19.3-47.8-48.8c0-29,19.1-48.6,48.6-48.6
			c13.1,0,23.8,3.9,31.6,9l2.7,18.9h-1.1c-4.1-15.6-17.2-23.9-33.3-23.9c-23.5,0-38.5,17.8-38.5,44.4c0,26.9,15.2,44.4,37.7,45
			c19-0.1,35.1-9.5,38.1-36.9H507.4z"/>
		<path class="st0" d="M619.6,735c0,29.2-19.6,48.7-48.1,48.7c-28.4,0-48.1-19.5-48.1-48.7c0-29.2,19.6-48.7,48.1-48.7
			C600,686.3,619.6,705.8,619.6,735z M609.4,735c0-26.8-15.1-44.7-37.8-44.7c-22.7,0-37.8,17.9-37.8,44.7
			c0,26.8,15.1,44.7,37.8,44.7C594.2,779.7,609.4,761.9,609.4,735z"/>
		<path class="st0" d="M694.9,760.3l-7.8,21.6h-55.5l0-1.3h1.7c4.7,0,8.5-3.8,8.6-8.4V698c-0.1-4.7-3.9-8.4-8.6-8.4h-1.7l0-1.3h29.3
			l0,1.3h-1.7c-4.7,0-8.5,3.8-8.6,8.4v79.8h19.2c14.2,0,19.6-7.3,23.7-17.5L694.9,760.3z"/>
		<path class="st0" d="M801.7,735c0,29.2-19.6,48.7-48.1,48.7s-48.1-19.5-48.1-48.7c0-29.2,19.6-48.7,48.1-48.7
			S801.7,705.8,801.7,735z M791.4,735c0-26.8-15.1-44.7-37.8-44.7c-22.7,0-37.8,17.9-37.8,44.7c0,26.8,15.1,44.7,37.8,44.7
			C776.3,779.7,791.4,761.9,791.4,735z"/>
		<path class="st0" d="M917,772.2c0.7,5.3,5,8.4,9.7,8.4h2.1v1.3h-29.1v-1.3h2.1c2.9,0,5.5-2.8,5.2-5.7l-6.1-67.3l-28.1,62.5
			c0,0-3.7,8.1-4.6,13.7H867l-34.2-74.2l-5.9,65.4c-0.3,2.9,2.3,5.7,5.2,5.7h2.1v1.3h-25.9v-1.3h2.1c4.8,0,9.1-3.1,9.7-8.4
			l10.1-85.8h1.2l37.3,80.7l36.5-80.7h1.2L917,772.2z"/>
		<path class="st0" d="M965.5,688.2c18.8,0,29.1,9,29.1,22.4c0,11.3-7.3,18.2-14.8,20.3c14.2,2.1,22.9,12.6,22.9,25.8
			c0,15.1-11.2,25.1-31.2,25.1h-32.6l0-1.3h1.7c4.6,0,8.4-3.7,8.6-8.3v-74.4c0-4.6-3.9-8.3-8.6-8.3H939l0-1.3L965.5,688.2z
			 M971.1,777c13.7,0.1,21.6-7.7,21.6-21.2c0-20.1-17.2-23.4-30.2-23.4l0-1.3c8.2,0,22.1-2.4,22.1-19.6c-0.1-12.1-6.9-19.1-19.6-19
			h-7.1V777H971.1z"/>
		<path class="st0" d="M1045.2,781.9H1016l0-1.3h1.7c4.7,0,8.5-3.7,8.6-8.4v-74.2c-0.1-4.6-3.9-8.4-8.6-8.4h-1.7l0-1.3h29.3l0,1.3
			h-1.7c-4.7,0-8.4,3.7-8.6,8.3v74.2c0.1,4.7,3.9,8.4,8.6,8.4h1.7L1045.2,781.9z"/>
		<path class="st0" d="M1137,772.1c2.7,6,7.7,8.4,11.8,8.4h1.1v1.3h-30.1v-1.3h1.2c3.4,0,7-3,5.1-8.4l-8.6-22.8h-36l-9,22.9
			c-1.9,5.3,1.7,8.3,5.1,8.3h1.2v1.3h-26.9v-1.3h1.2c4.1,0,9-2.5,11.7-8.4l30.3-72c0,0,4.9-10.8,4.9-13.8h1.2L1137,772.1z
			 M1116,745.3l-16.1-42.9l-16.8,42.9H1116z"/>
		<path class="st0" d="M1255,688.2l0,1.3h-2.5c-4.5,0-8.1,3.6-8.3,8v69.1c0,8.6,1.2,17.1,1.2,17.1h-1.2l-73-77.8v66.6
			c0.1,4.4,3.8,8,8.3,8h2.5l0,1.3h-27.6l0-1.3h2.5c4.5,0,8.2-3.6,8.3-8.1v-69.5c0-9.1-1.2-16.7-1.2-16.7h1.3l72.9,77.8v-66.3
			c-0.1-4.5-3.8-8.1-8.3-8.1h-2.5l0-1.3H1255z"/>
	</g>
	<g>
		<g>
			<path class="st0" d="M86.9,824.1c0-15,9.1-23.8,26.1-23.8c14.6,0,22.1,5.5,25.5,16.9c0.2,0.7-0.1,1.3-0.9,1.6l-1.7,0.6
				c-0.9,0.2-1.4-0.1-1.6-0.8c-3-9.8-8.9-14.2-21.2-14.2c-14.1,0-21.6,7.2-21.6,19.6v23.9c0,12.3,7.8,19.7,21.6,19.7
				c12.5,0,18.3-4.6,21.4-14.6c0.3-0.8,0.9-1.1,1.6-0.8l1.8,0.7c0.8,0.3,1.1,0.8,0.8,1.6c-3.5,11.6-10.9,17.4-25.7,17.4
				c-16.7,0-26.1-8.9-26.1-23.9V824.1z"/>
			<path class="st0" d="M199.1,801.6c0.9,0,1.3,0.4,1.3,1.3v66.3c0,0.9-0.4,1.3-1.3,1.3h-2c-0.8,0-1.2-0.4-1.2-1.3v-31.5h-41v31.5
				c0,0.9-0.4,1.3-1.2,1.3h-2c-0.9,0-1.3-0.4-1.3-1.3v-66.3c0-0.9,0.4-1.3,1.3-1.3h2c0.8,0,1.2,0.4,1.2,1.3v30.6h41v-30.6
				c0-0.9,0.4-1.3,1.2-1.3H199.1z"/>
			<path class="st0" d="M268.8,869.3c0.3,0.8,0,1.2-1,1.2h-1.7c-1.3,0-2-0.4-2.1-1.1l-8.6-21.4h-32.2l-8.5,21.4
				c-0.3,0.7-1,1.1-2.2,1.1h-1.6c-0.9,0-1.2-0.4-0.9-1.2l26.9-67c0.3-0.8,0.9-1.2,1.6-1.2h1.9c0.9,0,1.4,0.4,1.7,1.2L268.8,869.3z
				 M240.3,809.7c-0.2-0.6-0.5-1.9-1-4.2h-0.3c0,1.3-0.3,2.7-0.8,4.2l-13.8,34.4h29.6L240.3,809.7z"/>
			<path class="st0" d="M337.5,801.6c0.8,0,1.2,0.4,1.2,1.3v66.3c0,0.9-0.4,1.3-1.2,1.3h-1.9c-0.8,0-1.2-0.4-1.2-1.3v-44.5
				c0-5.4,0.2-10.9,0.7-16.2h-0.2c-2.4,4.9-4.8,9.5-7.3,13.9L310.3,853c-0.3,0.7-0.9,1-1.5,1h-1.3c-0.9,0-1.4-0.3-1.6-1l-17.5-31
				c-2.3-4-4.7-8.4-7-13.5h-0.2c0.4,5.7,0.6,11.1,0.6,16.2v44.5c0,0.9-0.4,1.3-1.3,1.3h-1.7c-0.9,0-1.3-0.4-1.3-1.3v-66.3
				c0-0.9,0.4-1.3,1.3-1.3h1.6c0.8,0,1.4,0.4,1.8,1.1l26,45.8l25.8-45.8c0.5-0.8,1.1-1.2,1.7-1.2H337.5z"/>
			<path class="st0" d="M383.3,801.6c11.6,0,18.2,6.1,18.2,17.4c0,8.2-3.4,13.5-10.1,15.9v0.2c8.2,1.8,12.4,7.5,12.4,17.1
				c0,11.6-7.3,18.3-19.3,18.3h-28.8c-0.9,0-1.3-0.4-1.3-1.3v-66.3c0-0.9,0.4-1.3,1.3-1.3H383.3z M382.8,805.8h-23.9v27.5h23.9
				c9,0,14.2-4.7,14.2-13.9C397,810.5,392,805.8,382.8,805.8z M384.4,837.4h-25.4v28.9h25.4c9.6,0,14.8-5.1,14.8-14.5
				C399.2,842.4,393.9,837.4,384.4,837.4z"/>
			<path class="st0" d="M457.3,801.6c0.9,0,1.3,0.4,1.3,1.3v1.7c0,0.8-0.4,1.2-1.3,1.2H421v27.7h32.2c0.8,0,1.2,0.4,1.2,1.2v1.7
				c0,0.9-0.4,1.3-1.2,1.3H421v28.6h37.7c0.9,0,1.3,0.4,1.3,1.2v1.7c0,0.9-0.4,1.3-1.3,1.3h-40.9c-0.9,0-1.3-0.4-1.3-1.3v-66.3
				c0-0.9,0.4-1.3,1.3-1.3H457.3z"/>
			<path class="st0" d="M500.8,801.6c12.3,0,19.7,7.1,19.7,19.4c0,11-6.5,17.8-17.1,18.7c3.2,1.4,5.8,4,8,8l10.9,21.5
				c0.6,0.9,0.4,1.3-0.7,1.3h-1.8c-1.3,0-2.1-0.4-2.4-1.1l-10.1-20c-3.4-6.6-7.2-9.2-15-9.2h-16v29c0,0.9-0.4,1.3-1.2,1.3h-2
				c-0.9,0-1.3-0.4-1.3-1.3v-66.3c0-0.9,0.4-1.3,1.3-1.3H500.8z M500.3,805.8h-24.1V836h24.1c9.8,0,15.5-5.4,15.5-15
				C515.9,811.3,510.1,805.8,500.3,805.8z"/>
			<path class="st0" d="M555.4,824.2c0-15,9.4-23.9,26.2-23.9c16.7,0,26,8.9,26,23.9v23.6c0,15-9.3,23.9-26,23.9
				c-16.8,0-26.2-8.9-26.2-23.9V824.2z M603.1,824.2c0-12.5-7.7-19.8-21.5-19.8c-14.1,0-21.7,7.3-21.7,19.8v23.6
				c0,12.5,7.7,19.8,21.7,19.8c13.9,0,21.5-7.3,21.5-19.8V824.2z"/>
			<path class="st0" d="M662.2,801.6c0.9,0,1.3,0.4,1.3,1.3v1.7c0,0.8-0.4,1.2-1.3,1.2h-36.4v28.7h31.6c0.9,0,1.3,0.4,1.3,1.3v1.7
				c0,0.8-0.4,1.2-1.3,1.2h-31.6v30.5c0,0.9-0.4,1.3-1.2,1.3h-2c-0.9,0-1.3-0.4-1.3-1.3v-66.3c0-0.9,0.4-1.3,1.3-1.3H662.2z"/>
			<path class="st0" d="M694.5,824.1c0-15,9.1-23.8,26.1-23.8c14.6,0,22.1,5.5,25.5,16.9c0.2,0.7-0.1,1.3-0.9,1.6l-1.7,0.6
				c-0.9,0.2-1.4-0.1-1.7-0.8c-3-9.8-8.9-14.2-21.2-14.2c-14.1,0-21.6,7.2-21.6,19.6v23.9c0,12.3,7.7,19.7,21.6,19.7
				c12.5,0,18.3-4.6,21.4-14.6c0.3-0.8,0.9-1.1,1.6-0.8l1.8,0.7c0.8,0.3,1.1,0.8,0.8,1.6c-3.5,11.6-10.9,17.4-25.7,17.4
				c-16.7,0-26.1-8.9-26.1-23.9V824.1z"/>
			<path class="st0" d="M755.9,824.2c0-15,9.4-23.9,26.2-23.9c16.7,0,26,8.9,26,23.9v23.6c0,15-9.3,23.9-26,23.9
				c-16.8,0-26.2-8.9-26.2-23.9V824.2z M803.6,824.2c0-12.5-7.7-19.8-21.5-19.8c-14.1,0-21.7,7.3-21.7,19.8v23.6
				c0,12.5,7.7,19.8,21.7,19.8c13.9,0,21.5-7.3,21.5-19.8V824.2z"/>
			<path class="st0" d="M881.9,801.6c0.8,0,1.2,0.4,1.2,1.3v66.3c0,0.9-0.4,1.3-1.2,1.3H880c-0.8,0-1.2-0.4-1.2-1.3v-44.5
				c0-5.4,0.2-10.9,0.7-16.2h-0.2c-2.4,4.9-4.9,9.5-7.3,13.9L854.8,853c-0.3,0.7-0.9,1-1.6,1H852c-0.9,0-1.4-0.3-1.6-1l-17.6-31
				c-2.3-4-4.7-8.4-7-13.5h-0.2c0.4,5.7,0.6,11.1,0.6,16.2v44.5c0,0.9-0.4,1.3-1.3,1.3h-1.7c-0.9,0-1.3-0.4-1.3-1.3v-66.3
				c0-0.9,0.4-1.3,1.3-1.3h1.5c0.8,0,1.4,0.4,1.9,1.1l26,45.8l25.8-45.8c0.5-0.8,1.1-1.2,1.7-1.2H881.9z"/>
			<path class="st0" d="M959,801.6c0.8,0,1.2,0.4,1.2,1.3v66.3c0,0.9-0.4,1.3-1.2,1.3H957c-0.8,0-1.2-0.4-1.2-1.3v-44.5
				c0-5.4,0.2-10.9,0.7-16.2h-0.2c-2.4,4.9-4.8,9.5-7.3,13.9L931.8,853c-0.3,0.7-0.9,1-1.6,1H929c-0.9,0-1.4-0.3-1.6-1l-17.5-31
				c-2.3-4-4.7-8.4-7-13.5h-0.2c0.4,5.7,0.6,11.1,0.6,16.2v44.5c0,0.9-0.4,1.3-1.3,1.3h-1.7c-0.9,0-1.3-0.4-1.3-1.3v-66.3
				c0-0.9,0.4-1.3,1.3-1.3h1.5c0.8,0,1.4,0.4,1.8,1.1l26,45.8l25.8-45.8c0.5-0.8,1.1-1.2,1.7-1.2H959z"/>
			<path class="st0" d="M1016.8,801.6c0.9,0,1.3,0.4,1.3,1.3v1.7c0,0.8-0.4,1.2-1.3,1.2h-36.4v27.7h32.2c0.8,0,1.2,0.4,1.2,1.2v1.7
				c0,0.9-0.4,1.3-1.2,1.3h-32.2v28.6h37.7c0.9,0,1.3,0.4,1.3,1.2v1.7c0,0.9-0.4,1.3-1.3,1.3h-40.9c-0.9,0-1.3-0.4-1.3-1.3v-66.3
				c0-0.9,0.4-1.3,1.3-1.3H1016.8z"/>
			<path class="st0" d="M1060.3,801.6c12.3,0,19.7,7.1,19.7,19.4c0,11-6.5,17.8-17.1,18.7c3.2,1.4,5.8,4,8,8l10.9,21.5
				c0.6,0.9,0.4,1.3-0.7,1.3h-1.8c-1.3,0-2.1-0.4-2.4-1.1l-10.1-20c-3.4-6.6-7.2-9.2-15-9.2h-16v29c0,0.9-0.4,1.3-1.2,1.3h-2
				c-0.9,0-1.3-0.4-1.3-1.3v-66.3c0-0.9,0.4-1.3,1.3-1.3H1060.3z M1059.8,805.8h-24.1V836h24.1c9.8,0,15.5-5.4,15.5-15
				C1075.3,811.3,1069.6,805.8,1059.8,805.8z"/>
			<path class="st0" d="M1091.2,824.1c0-15,9.1-23.8,26.1-23.8c14.6,0,22.1,5.5,25.5,16.9c0.2,0.7-0.1,1.3-0.9,1.6l-1.7,0.6
				c-0.9,0.2-1.4-0.1-1.7-0.8c-3-9.8-8.9-14.2-21.2-14.2c-14.1,0-21.6,7.2-21.6,19.6v23.9c0,12.3,7.7,19.7,21.6,19.7
				c12.5,0,18.3-4.6,21.4-14.6c0.3-0.8,0.9-1.1,1.7-0.8l1.8,0.7c0.8,0.3,1.1,0.8,0.8,1.6c-3.5,11.6-10.9,17.4-25.7,17.4
				c-16.7,0-26.1-8.9-26.1-23.9V824.1z"/>
			<path class="st0" d="M1195.5,801.6c0.9,0,1.3,0.4,1.3,1.3v1.7c0,0.8-0.4,1.2-1.3,1.2h-36.4v27.7h32.2c0.8,0,1.2,0.4,1.2,1.2v1.7
				c0,0.9-0.4,1.3-1.2,1.3h-32.2v28.6h37.7c0.9,0,1.3,0.4,1.3,1.2v1.7c0,0.9-0.4,1.3-1.3,1.3H1156c-0.9,0-1.3-0.4-1.3-1.3v-66.3
				c0-0.9,0.4-1.3,1.3-1.3H1195.5z"/>
		</g>
	</g>
	<g>
		<g>
			<path class="st1" d="M938.5,617.2c-29.3,0-57.6,0-85.9,0c-6.6,0-13.2-0.2-19.8,0.1c-6.1,0.3-9.6-2.6-10.4-8.2
				c-1.3-9.4-1.7-19-3.1-28.4c-0.7-4.8-3.3-9.4-3.6-14.1c-0.2-3.5,2.1-7.1,3.2-10.6c0.7,0.1,1.5,0.1,2.2,0.2
				c0.8,5.2,2,10.4,2.4,15.7c0.7,8.2,0.6,16.5,1.2,24.8c0.8,10.3,2.4,11.6,12.3,11.7c11.6,0.1,23.1,0,36.3,0
				c-8.9-7.7-17.3-12.5-28.3-11.5c1.2-6.9,7.9-11.3,14.7-8.6c5.2,2,10.6,4.8,14.3,8.8c8.7,9.5,19,13.1,31.5,11.4
				c2.3-0.3,4.7,0,8.6,0c-1.2-4.1-1.2-8.2-3.3-10.5c-4.3-4.8-2.6-8.4,0.4-12.4c4,3.5,4,3.5,6.6,22.5c4.8,0,9.6,0,15,0
				c-1.3-9.7-2.3-19.2-4-28.5c-1-5.4-3.4-10.6-4.2-16c-0.5-3.5,0.8-7.2,1.3-10.9c3,1.9,5.6,3.4,8,5.1c4.1,2.9,1.4,6.5,0.8,9.8
				c-0.4,2.2-1.6,4.5-1.4,6.7c1.4,12.4,3.2,24.7,4.8,37.1C938.7,613,938.5,614.8,938.5,617.2z"/>
			<path class="st1" d="M435.9,617.2c-17.4,0-34.2,0-51.1,0c-1.8,0-3.7,0.2-5.5,0c-3.6-0.5-5.3,0.7-6.5,4.5
				c-6.1,18.3-25.4,24-40.6,11.6c9.4,2.8,18.6,3.2,26.4-3.3c4.1-3.5,7.7-7.6,11.7-11.6c-1.2-0.7-1.5-1-1.8-1.1
				c-11.9-2.1-15.8-12-8.2-21.6c1.5-1.9,4.7-3.6,6.8-3.3c2.1,0.3,4.7,2.9,5.6,5.1c1.3,3.1,1.4,6.7,2.1,10.5c10.8,0,21.5,0,32.8,0
				c-0.5-1.1-0.8-2.4-1.5-3.2c-5.7-5.6-10.4-12.5-19.7-13.3c-4.9-0.4-9.6-7.6-8.2-12.4c1.3-4.2,3.1-9.4,6.4-11.6
				c7.6-4.9,16.2-8.1,24.6-12.1c1.7,6.5,1.1,10-5.3,11.6c-6.7,1.6-13,4.7-20.6,7.6c2.6,2.4,4,3.9,5.7,5.2
				c9.6,7.3,18.3,15.3,24.5,25.8c0.8,1.3,2.7,2.5,4.2,2.7c4,0.4,8,0.1,13,0.1c-0.6-4.3-1.1-8-1.6-11.7c-1.3-9.3-1.7-18.8-4.2-27.7
				c-1.7-5.8-3.2-10.8-0.3-16.5c1.5,1.4,2.7,2.9,4.4,3.9c5.4,3.2,6,6.3,2.9,12c-1,1.8-0.8,4.5-0.5,6.6c1.5,12.6,3.3,25.1,4.9,37.6
				C436.3,613.8,436,615.1,435.9,617.2z M370.5,608.2c-1-4.1-1.6-7.7-6.2-7.5c-0.9,0-2.6,2.1-2.4,2.9
				C362.7,607.8,366,608.4,370.5,608.2z"/>
			<path class="st1" d="M153.7,600.4c-5.1,5.9-11.3,4.9-17.5,3.7c-4.8-0.9-6-2.9-3-6.6c3.5-4.3,8.1-7.9,12.5-11.3
				c2.8-2.2,6.6-3,5.3-8.1c-0.4-1.6,1.5-3.8,3.6-5.6c1.1,5.8,2.3,11.6,3.4,17.4c0.4,2.3,0.8,4.7,1.2,7.1
				c2.2,11.1,2.2,11.2,13.3,11.3c5.9,0.1,11.8,0,17.6,0c0.5,0,1-0.3,2.8-0.7c-1-3.4-1.1-7.5-3.1-9.9c-4.3-4.9-2.3-8.4,0.7-12.6
				c7.1,6.3,5.2,15,6.5,23c6.9,0,13.6,0,21.8,0c-1.1-3.7-1.1-7.9-3.2-10.2c-4.3-4.8-2.6-8.4,0.6-12.6c7.2,6.1,5.3,14.6,6.2,22.7
				c6.5,1,11.3-1.3,15.6-5.9c3.7-4,7.9-7.6,12.1-11.1c2.4-2,4.4-1.4,6.2,1.5c5.4,8.5,6.9,13.8,5.9,24.4c-6.6,1.6-12.4-0.7-18.2-3.5
				c-1.5-0.7-3.8-0.2-5.5,0.3c-3.8,1-7.5,3.5-11.3,3.5c-20.4,0.4-40.8,0.4-61.2,0c-2.7,0-6.1-2.4-7.7-4.7
				C156.2,609.2,155.4,605,153.7,600.4z M255.4,607.7c0.6-0.6,1.1-1.3,1.7-1.9c-2.2-2.9-4.3-5.7-6.5-8.6c-1.8,1.5-3.6,3-6.5,5.3
				C248.8,604.7,252.1,606.2,255.4,607.7z M151.7,588.7c-3.6,2.6-6.6,4.7-10.4,7.4C150.6,598.7,153.7,596.5,151.7,588.7z"/>
			<path class="st1" d="M673.1,551.3c3.1,2.6,4.4,4.1,6,5.1c5.1,2.9,6,7,2.7,11.7c-0.7,1.1-1,2.8-0.9,4.2
				c1.6,12.9,3.3,25.9,4.9,38.8c0.2,1.8,0,3.6,0,6.5c-14.2-2.4-29,4.4-40.6-5.4c-6.5,1.8-12.5,3.2-18.4,5.1
				c-1.5,0.5-3.5,1.8-3.9,3.2c-5.1,15.6-20.6,23.8-36.1,18.8c-3.6-1.2-7-2.6-10.5-4c0.1-0.6,0.2-1.1,0.4-1.7
				c2.1,0.2,4.3,0.2,6.4,0.6c13.9,2.7,29.2-5.1,35.1-18c2.8-6.2,0.8-11.9-3.1-16.4c-3.7-4.3-2.6-7.8-0.1-12.1
				c6.9,5,8.3,12.2,8.4,21.2c6-1.4,11.3-2.7,16.6-3.9c0.1-0.9,0.2-1.7,0.3-2.6c-2.8-1-5.7-2.1-9.1-3.3c-1-6.7,1.5-10.1,9.4-10.4
				c3.1-0.1,6.3,0,9.3,0.6c8,1.7,9.6,7.1,4.1,13.1c-0.8,0.9-1.7,1.8-3.3,3.6c9.9,4.3,19.5,1.4,29.9,2.6c-0.8-6.1-1.4-11.5-2.2-16.8
				c-0.9-6.7-1.7-13.5-2.9-20.2c-0.4-2.4-2.1-4.6-2.4-7C672.8,560.6,673.1,556.6,673.1,551.3z"/>
			<path class="st1" d="M1057.1,633.1c2.3,0.4,4.5,0.7,6.7,1.2c13.5,2.7,29.6-6,34.7-18.6c2.4-6,0.5-11.5-3.3-15.9
				c-3.8-4.3-2.6-7.7-0.1-12c6.9,5,8.2,12.3,8.4,20.2c2.5,0,4.6,0,5.5,0c0.5-6.1,0.1-12.3,1.8-17.8c0.8-2.7,5.3-5,8.5-6.2
				c9.5-3.5,17.6-0.2,22.8,8.8c-3.5-0.4-6.6-0.9-9.8-1.1c-2.7-0.2-5.5-0.4-8.2,0.1c-3.9,0.6-9.3,0-9.1,6.2c0.2,4.9,7.6,10,12.5,9
				c7.8-1.6,15.6-3.4,23.8-5.2c-0.9,5.9-2.8,10.1-9.1,10.8c-11.4,1.4-22.8,3.2-34.3,4.5c-2.8,0.3-4.4,0.5-5.3,3.8
				c-4.1,14.5-20.5,23-34.7,18.5c-3.9-1.2-7.7-2.8-11.6-4.1C1056.7,634.6,1056.9,633.9,1057.1,633.1z"/>
			<path class="st1" d="M544.4,608.2c-1.3-4.3-1.3-8.1-3.3-10.2c-4.1-4.6-3.2-8.3,0.5-12.8c7,6.1,5.4,14.5,6.3,22.7
				c6.9,0,13.7,0,21.9,0c-1.1-3.6-1.1-7.8-3.2-10.1c-4.3-4.8-2.6-8.4,0.9-12.8c8.5,9.5,4.7,20.9,5.9,32.3c-2.5,0-4.4,0-6.4,0
				c-15.6,0-31.2,0-46.8,0c-8.6,0-10.5-1.4-13.1-9.5c-0.7-2.2-1.3-4.5-2.1-7.5c-5.3,5.9-11.6,4.9-18.1,3.9c-4.6-0.7-5.5-3.4-3-6.4
				c3.6-4.3,7.9-8,12.4-11.4c3-2.3,6.8-3.2,5.7-8.4c-0.3-1.6,1.6-3.7,3.7-5.4c1.4,7.5,2.8,14.9,4.2,22.4c0.4,2.3,1,4.7,1.5,7
				c1,4.5,3.1,6.8,8.4,6.4C527.5,607.8,535.2,608.2,544.4,608.2z M504.1,590.5c-0.7-0.4-1.3-0.8-2-1.3c-3,2.1-6,4.1-9.1,6.2
				c0.3,0.8,0.6,1.5,0.9,2.3c2.8-0.6,5.8-0.6,8.2-1.9C503.5,595.1,503.5,592.3,504.1,590.5z"/>
			<path class="st1" d="M1007.2,600.3c-5.4,6.3-11.9,4.6-18.2,3.8c-3.9-0.5-4.9-3.2-2.7-5.7c3.9-4.5,8.3-8.6,13.1-12.2
				c3-2.3,5.9-3.6,5.3-8.3c-0.2-1.7,1.6-3.8,3.6-5.5c1.4,7.5,2.9,15,4.2,22.6c2.3,13.2,2.3,13.3,15.4,13.3c6.4,0,12.8,0,19.9,0
				c-0.2-2.8-0.4-5-0.6-7.8c-2.6,0.4-4.7,0.9-6.8,1.1c-6.7,0.7-10.6-2.8-10.1-9.5c0.3-3.6,0.8-7.5,2.5-10.6c1.4-2.5,4.5-5.6,7-5.7
				c2.5-0.1,6.1,2.5,7.7,4.9c2.1,3.1,3.3,7.1,3.7,10.8c0.9,8.3,1.1,16.7,1.6,25.6c-12.5,0-24.1,0.2-35.6-0.2
				c-1.9-0.1-4.4-2.6-5.5-4.6C1009.8,608.8,1008.8,604.8,1007.2,600.3z M995.6,595.3c0.3,0.8,0.6,1.6,0.9,2.4
				c2.9-0.7,6.1-0.9,8.7-2.2c1-0.5,0.9-3.5,1.3-5.3c-0.6-0.3-1.1-0.7-1.7-1C1001.7,591.2,998.6,593.3,995.6,595.3z M1042.4,592.3
				c0.5-1.1,1-2.2,1.5-3.3c-2.4-1.3-4.8-2.5-7.2-3.8c-0.5,1.6-1.6,4.4-1.3,4.5C1037.6,590.9,1040,591.6,1042.4,592.3z"/>
			<path class="st1" d="M329.3,617.2c-6.5,0-12,0.1-17.5-0.1c-2.8-0.1-4,0.8-4.9,3.7c-3.7,11.7-11.8,19.3-21,18.9
				c-6.8-0.3-13.5-2.5-19.9-4.9c7.1-0.6,14.9,0.4,21.2-2.1c6.4-2.6,11.3-8.7,16.8-13.2c-1.1-1.5-1.2-2-1.5-2
				c-12.1-2.1-16.2-11.6-8.8-21.5c1.5-2,4.9-3.7,7.3-3.5c2,0.2,4.5,3,5.5,5.2c1.3,3.1,1.3,6.8,2,10.4c5,0,9.9,0,15.4,0
				c-1.3-9.8-2.3-19.3-4-28.6c-0.9-5.4-3.4-10.6-4.2-16c-0.5-3.5,0.8-7.2,1.3-10.9c3,1.9,5.6,3.4,8,5.1c4.1,2.9,1.4,6.5,0.8,9.9
				c-0.4,2.2-1.6,4.5-1.4,6.7c1.4,12.4,3.2,24.8,4.8,37.1C329.5,613,329.3,614.8,329.3,617.2z M304.2,608.2c-1-4.1-1.6-7.7-6.3-7.5
				c-0.9,0-2.6,2.1-2.4,2.9C296.5,607.8,299.8,608.4,304.2,608.2z"/>
			<path class="st1" d="M804.7,588c10.7,8.9,11.9,31.5,2.3,42.1c-12,13.3-29.6,15.1-41.8,3c3.4,0.5,5.6,0.8,7.8,1.2
				c13.5,2.7,28.9-5.3,34.6-17.9c2.7-5.9,1.1-11.4-2.6-16C801.6,596.2,801.3,592.4,804.7,588z"/>
			<path class="st1" d="M744.1,586.9c3.9,2.1,7,3.7,9.9,5.5c7.5,4.6,9.6,11.7,5.8,19.3c-2.8,5.6-11.6,8.6-18.3,6.2
				c-3.6-1.3-5.4-3.8-4.4-7.7C739.3,602.7,741.6,595.3,744.1,586.9z M757.4,605.5c-3.9-2.6-7.3-4.8-10.8-7c-3.1,3.3-6.4,6-2.9,10.3
				C746.3,611.8,751.5,610.7,757.4,605.5z"/>
			<path class="st1" d="M448.5,617.5c-1.5-15.7-3.2-31.3-4.3-47c-0.3-4.6,1.2-9.3,1.9-14c0.9,0.1,1.9,0.1,2.8,0.2
				C449.1,577,457.9,597.3,448.5,617.5z"/>
			<path class="st1" d="M699.1,556.7c1.4,15.8,3.1,31.6,4,47.5c0.2,4.4-2.1,9-3.2,13.6c-0.6-0.1-1.1-0.2-1.7-0.2
				c-0.4-6.6-0.7-13.2-1.3-19.7c-0.9-9.7-2.4-19.3-2.9-29c-0.2-4.1,1.5-8.2,2.4-12.4C697.3,556.5,698.2,556.6,699.1,556.7z"/>
			<path class="st1" d="M951.4,556.7c1.3,13.4,3.2,26.9,3.8,40.4c0.3,6.2-1.6,12.5-2.7,18.7c-0.1,0.8-0.9,1.5-2,3.1
				c-0.3-6.7-0.4-12.4-0.9-18.1c-0.9-9.9-1.7-19.7-3.1-29.5C945.7,565.8,946.7,561.1,951.4,556.7z"/>
			<path class="st1" d="M204.6,632.6c1.5-2.8,2.6-5,4-7.7c2.9,1.6,5.5,2.9,8.5,4.5c-1.4,2.6-2.6,4.8-4,7.4
				C210.3,635.4,207.8,634.2,204.6,632.6z"/>
			<path class="st1" d="M568.1,629.6c-1.5,2.7-2.8,4.9-4.1,7.3c-2.9-1.5-5.4-2.8-8.4-4.3c1.3-2.7,2.5-4.9,3.9-7.7
				C562.5,626.5,565.2,628,568.1,629.6z"/>
			<path class="st1" d="M145.7,559.5c1.4-2.3,2.8-4.6,4.4-7.4c2.8,1.5,5.4,2.9,8.5,4.5c-1.5,2.6-2.7,4.7-4.2,7.4
				c-3.1-1.6-6-3.1-8.8-4.5L145.7,559.5z"/>
			<path class="st1" d="M496.6,559.5c1.4-2.3,2.8-4.6,4.4-7.4c2.8,1.5,5.4,2.9,8.5,4.5c-1.5,2.6-2.7,4.7-4.2,7.4
				c-3.1-1.6-6-3.1-8.8-4.5L496.6,559.5z"/>
			<path class="st1" d="M1003.4,552c3.2,1.7,5.6,3,8.5,4.5c-1.3,2.5-2.5,4.7-3.9,7.5c-2.8-1.4-5.3-2.7-8.4-4.3
				C1000.9,557.1,1002,554.8,1003.4,552z"/>
			<path class="st1" d="M1033.3,564c1.4-2.6,2.5-4.8,4-7.6c2.8,1.5,5.5,2.9,8.4,4.5c-1.4,2.6-2.5,4.8-4,7.6
				C1039,567,1036.3,565.6,1033.3,564z"/>
			<path class="st1" d="M145.5,559.4c-0.6,3-1.1,5.9-1.8,9.7c-3.8-1.9-6.3-3.2-9.3-4.8c1.4-2.7,2.6-5.1,3.7-7.2
				c2.9,1,5.2,1.7,7.5,2.5C145.7,559.5,145.5,559.4,145.5,559.4z"/>
			<path class="st1" d="M496.5,559.4c-0.6,3-1.1,5.9-1.8,9.7c-3.8-1.9-6.3-3.2-9.3-4.8c1.4-2.7,2.6-5.1,3.7-7.2
				c2.8,1,5.2,1.7,7.5,2.5C496.6,559.5,496.5,559.4,496.5,559.4z"/>
			<path class="st1" d="M996,568.6c-3-1.6-5.4-2.9-8-4.4c1.3-2.5,2.4-4.7,3.7-7.5c2.9,1.5,5.6,2.8,8.7,4.3
				C998.8,563.8,997.4,566.2,996,568.6z"/>
			<path class="st1" d="M1126.9,577.5c-3.2-1.7-5.6-2.9-8.4-4.4c1.4-2.7,2.6-5,4-7.6c3,1.6,5.5,2.9,8.4,4.5
				C1129.5,572.7,1128.2,575,1126.9,577.5z"/>
			<path class="st1" d="M536.2,632.5c0.5-3.1,0.9-6.2,1.5-10.3c3.9,2,6.4,3.3,9.5,4.9c-1.3,2.6-2.5,4.9-3.5,6.9
				C540.9,633.4,538.6,632.9,536.2,632.5L536.2,632.5z"/>
			<path class="st1" d="M185.2,632.5c0.5-3.1,0.9-6.3,1.5-10.3c3.9,2,6.4,3.3,9.5,4.9c-1.3,2.6-2.5,4.9-3.5,6.9
				C189.9,633.4,187.6,632.9,185.2,632.5L185.2,632.5z"/>
			<path class="st1" d="M905.7,571.3c0.8-2.8,1.7-5.6,2.7-9c3.5,1.9,6,3.2,8.9,4.8c-1.4,2.6-2.6,4.9-3.8,7.1c-3-1.1-5.5-2.1-7.9-3.1
				L905.7,571.3z"/>
			<path class="st1" d="M905.5,571.1c-1.2,2.6-2.3,5.2-3.6,8.2c-3.1-1.7-5.6-3-8.5-4.6c1.3-2.5,2.5-4.7,3.8-7.3
				c3,1.4,5.7,2.6,8.5,3.9C905.7,571.3,905.5,571.1,905.5,571.1z"/>
			<path class="st1" d="M745.5,573.2c0.8-2.5,1.6-5,2.6-8.2c3.3,1.7,6,3.1,9,4.7c-1.4,2.6-2.5,4.8-3.9,7.5c-2.8-1.5-5.3-2.8-7.8-4.1
				L745.5,573.2z"/>
			<path class="st1" d="M745.4,573.1c-1.2,2.8-2.3,5.7-3.6,8.9c-3.2-1.6-5.8-3-8.7-4.4c1.3-2.6,2.4-4.8,3.6-7.2c3.1,1,6,1.9,8.8,2.8
				L745.4,573.1z"/>
			<path class="st1" d="M536.2,632.5c-1.6,2.1-3.2,4.2-4.9,6.6c-2.6-1.3-5.1-2.6-8-4.1c1.4-2.6,2.5-4.8,4-7.7
				C530.4,629.1,533.3,630.8,536.2,632.5C536.2,632.5,536.2,632.5,536.2,632.5z"/>
			<path class="st1" d="M185.2,632.5c-1.6,2.1-3.1,4.2-4.9,6.6c-2.5-1.3-5.1-2.6-8-4.1c1.4-2.6,2.5-4.8,4-7.7
				C179.4,629.1,182.3,630.8,185.2,632.5L185.2,632.5z"/>
			<path class="st1" d="M853.7,631.1c1.4-2.7,2.6-4.9,4.1-7.6c2.8,1.5,5.3,2.8,8.3,4.5c-1.2,2.4-2.3,4.7-3.8,7.5
				C859.3,634,856.6,632.6,853.7,631.1z"/>
		</g>
	</g>
	<linearGradient id="SVGID_1_" gradientUnits="userSpaceOnUse" x1="85.7917" y1="665.6893" x2="1197.2148" y2="665.6893">
		<stop  offset="0.2634" style="stop-color:#BC9B48"/>
		<stop  offset="0.446" style="stop-color:#C7A54B"/>
		<stop  offset="0.5968" style="stop-color:#D4B04E"/>
	</linearGradient>
	<linearGradient id="SVGID_2_" gradientUnits="userSpaceOnUse" x1="85.7917" y1="665.6893" x2="1197.2148" y2="665.6893">
		<stop  offset="0.2634" style="stop-color:#BC9B48"/>
		<stop  offset="0.446" style="stop-color:#C7A54B"/>
		<stop  offset="0.5968" style="stop-color:#D4B04E"/>
	</linearGradient>
	<line class="st2" x1="85.8" y1="665.7" x2="1197.2" y2="665.7"/>
	<g>
		<linearGradient id="SVGID_3_" gradientUnits="userSpaceOnUse" x1="465.6223" y1="324.4385" x2="817.3897" y2="324.4385">
			<stop  offset="0.2634" style="stop-color:#BC9B48"/>
			<stop  offset="0.446" style="stop-color:#C7A54B"/>
			<stop  offset="0.5968" style="stop-color:#D4B04E"/>
		</linearGradient>
		<path class="st3" d="M813.6,297.5c16.9,69.6-23.9,150.5-91,183.9c-74.7,37.2-161.5,20.1-214.8-42.3
			c-53.3-62.4-56.1-152.2-7.8-219.9c40.3-56.5,117.8-80.6,161.1-67.8c-46.4,8.5-81.1,30.5-103.8,69.6
			c-12.8,22.1-20.3,46.6-17.3,71.5c8.9,73.6,52.3,120.5,115.5,129.8c25.5,3.8,49.6,0.5,73-9.3c23.9-10,43.2-26,58.4-47.1
			C801.7,345.4,809,322.1,813.6,297.5z"/>
		<linearGradient id="SVGID_4_" gradientUnits="userSpaceOnUse" x1="665.1628" y1="260.8895" x2="749.108" y2="260.8895">
			<stop  offset="0.2634" style="stop-color:#BC9B48"/>
			<stop  offset="0.446" style="stop-color:#C7A54B"/>
			<stop  offset="0.5968" style="stop-color:#D4B04E"/>
		</linearGradient>
		<path class="st4" d="M679.2,299.1c2.8-7.9,5.4-15.9,8.5-23.8c1.5-3.9,0.8-6.3-2.6-8.8c-6.8-4.8-13.3-10.1-19.9-15.2
			c0.3-0.7,0.6-1.3,0.9-2c8.1,0.2,16.2,0,24.2,0.6c5.3,0.4,7.7-1.2,9.2-6.4c2.2-7.8,5.4-15.3,8.2-22.9c0.6,0,1.1,0,1.7,0.1
			c2.3,8,5,16,6.9,24.1c1.1,4.8,3.4,6.2,8,6c8-0.3,16-0.2,24-0.3c0.3,0.6,0.6,1.1,0.9,1.7c-8.4,5.9-16.9,11.9-25.7,18.1
			c2.9,9.8,5.8,19.7,8.8,29.5c-0.5,0.4-1,0.8-1.6,1.2c-6.1-4.7-12.5-9-18.2-14.1c-4.4-4-7.9-3.6-12.3-0.2c-6.3,4.8-13,9.1-19.6,13.5
			C680.1,299.9,679.6,299.5,679.2,299.1z"/>
	</g>
</g>
</svg>
