<?xml version="1.0" encoding="utf-8"?>
<!-- Generator: Adobe Illustrator 25.3.1, SVG Export Plug-In . SVG Version: 6.00 Build 0)  -->
<svg version="1.1" id="Capa_1" xmlns="http://www.w3.org/2000/svg" xmlns:xlink="http://www.w3.org/1999/xlink" x="0px" y="0px"
	 viewBox="0 0 3510.9 784" style="enable-background:new 0 0 3510.9 784;" xml:space="preserve">
<style type="text/css">
	.st0{fill:#706F6F;}
	.st1{fill-rule:evenodd;clip-rule:evenodd;fill:#852032;}
	.st2{fill-rule:evenodd;clip-rule:evenodd;fill:url(#SVGID_1_);}
	.st3{fill-rule:evenodd;clip-rule:evenodd;fill:url(#SVGID_2_);}
	.st4{fill:none;stroke:url(#SVGID_3_);stroke-width:1.5;stroke-miterlimit:10;}
</style>
<g>
	<g>
		<path class="st0" d="M1079.7,244.3c5.4,12,15.4,16.9,23.6,16.9h2.2v2.7H1045v-2.7h2.4c6.9,0,14.1-6.1,10.2-16.9l-17.2-45.8H968
			l-18,46c-3.8,10.7,3.4,16.7,10.3,16.7h2.3v2.7h-54.1v-2.7h2.4c8.2,0,18.1-4.9,23.5-16.9l61-144.7c0,0,10-21.8,10-27.7h2.4
			L1079.7,244.3z M1037.4,190.6l-32.4-86.3l-33.8,86.3H1037.4z"/>
		<path class="st0" d="M1191.3,75.8c32.6,0,52.5,19.2,52.5,50.5c0,26-19.8,51.2-45.7,51.2c5.8,2.7,14,11.6,19.2,18.9
			c0,0,23.2,33.1,33.6,44.4c10.8,11.8,20.8,20.2,36.6,20.3v2.7h-14.8c-25,0-38.4-13.5-46.9-23.6c-3.1-3.7-33.3-47.7-35.4-50.3
			c-7-8.8-14.9-18.1-24.7-18.1v-2.5c0,0,6.1,0.1,14.2-0.1c13.9-0.4,34.3-3.7,41.9-27.9c1.2-3.8,1.9-10.2,1.7-16.1
			c-0.7-24.3-13.3-39.9-33.3-41c-13.7-0.8-30-0.1-33.4-0.2v160.2c0.2,9.4,7.8,16.9,17.2,16.9h3.4l0.1,2.7h-58.7l0.1-2.7h3.4
			c9.4,0,17-7.5,17.2-16.8V95.3c-0.2-9.4-7.8-16.9-17.2-16.9h-3.4l0-2.7L1191.3,75.8L1191.3,75.8z"/>
		<path class="st0" d="M1445.1,244.3c5.4,12,15.4,16.9,23.6,16.9h2.2v2.7h-60.5v-2.7h2.4c6.9,0,14.1-6.1,10.2-16.9l-17.2-45.8h-72.4
			l-18,46c-3.8,10.7,3.4,16.7,10.3,16.7h2.4v2.7h-54.1v-2.7h2.4c8.2,0,18.1-4.9,23.5-16.9l61-144.7c0,0,9.9-21.8,9.9-27.7h2.4
			L1445.1,244.3z M1402.8,190.6l-32.4-86.3l-33.8,86.3H1402.8z"/>
		<path class="st0" d="M1537.7,75.8c37.7,0,58.4,18,58.5,44.9c-0.1,22.8-14.6,36.5-29.8,40.8c28.6,4.3,46.1,25.2,46.1,51.9
			c0,30.4-22.6,50.5-62.6,50.5h-65.5l0-2.7h3.4c9.3,0,16.9-7.4,17.2-16.7V95.1c0-9.3-7.9-16.7-17.3-16.7h-3.4l0-2.7L1537.7,75.8z
			 M1548.9,254.1c27.6,0.1,43.4-15.5,43.4-42.7c0-40.3-34.7-47-60.7-47l-0.1-2.5c16.4,0,44.3-4.8,44.5-39.3
			c-0.1-24.3-13.8-38.3-39.3-38.2h-14.2v169.7L1548.9,254.1L1548.9,254.1z"/>
		<path class="st0" d="M1883.8,185.5l-3.3,42.2c-14.2,23.2-38.2,40-75.6,40c-56.2-0.3-96-38.7-96-98.1c0-58.3,38.4-97.6,97.6-97.6
			c26.3,0,47.8,7.8,63.6,18.2l5.4,38h-2.2c-8.2-31.4-34.5-48.1-66.8-48.1c-47.3,0-77.4,35.8-77.4,89.2c0,54.1,30.7,89.3,75.8,90.4
			c38.2-0.1,70.4-19.1,76.6-74.2L1883.8,185.5L1883.8,185.5z"/>
		<path class="st0" d="M2109.2,169.8c0,58.7-39.4,97.8-96.6,97.8s-96.6-39.1-96.6-97.8c0-58.7,39.5-97.8,96.6-97.8
			C2069.8,72,2109.2,111.1,2109.2,169.8z M2088.7,169.8c0-53.9-30.4-89.8-76-89.8c-45.6,0-76,35.9-76,89.8c0,53.9,30.4,89.8,76,89.8
			C2058.2,259.7,2088.7,223.7,2088.7,169.8z"/>
		<path class="st0" d="M2260.4,220.5l-15.6,43.4h-111.4l0.1-2.7h3.4c9.4,0,17.1-7.5,17.2-16.9v-149c-0.2-9.4-7.8-16.9-17.2-16.9
			h-3.4l-0.1-2.7h58.8l0,2.7h-3.4c-9.4,0-17,7.5-17.2,16.9v160.3h38.5c28.5,0,39.4-14.7,47.7-35.2L2260.4,220.5z"/>
		<path class="st0" d="M2474.9,169.8c0,58.7-39.5,97.8-96.6,97.8c-57.2,0-96.6-39.1-96.6-97.8c0-58.7,39.4-97.8,96.6-97.8
			S2474.9,111.1,2474.9,169.8z M2454.3,169.8c0-53.9-30.4-89.8-76-89.8s-76,35.9-76,89.8c0,53.9,30.4,89.8,76,89.8
			S2454.3,223.7,2454.3,169.8z"/>
		<path class="st0" d="M2706.6,244.4c1.4,10.6,10,16.8,19.6,16.8h4.3v2.7H2672v-2.5h4.2c5.8,0,11-5.7,10.5-11.5l-12.2-135.2
			L2618,240.2c0,0-7.5,16.3-9.2,27.4h-2.5l-68.8-149.1l-11.8,131.4c-0.5,5.8,4.7,11.5,10.5,11.5h4.2v2.5h-52.1v-2.7h4.3
			c9.6,0,18.2-6.2,19.6-16.8L2532.4,72h2.5l75,162.2l73.3-162.1h2.4L2706.6,244.4z"/>
		<path class="st0" d="M2804.1,75.8c37.7,0,58.4,18,58.5,44.9c-0.1,22.8-14.6,36.5-29.8,40.8c28.6,4.3,46.1,25.2,46.1,51.9
			c0,30.4-22.6,50.5-62.6,50.5h-65.5l0.1-2.7h3.4c9.4,0,16.9-7.4,17.2-16.7V95.1c0-9.3-7.9-16.7-17.3-16.7h-3.3l-0.1-2.7
			L2804.1,75.8z M2815.3,254.1c27.6,0.1,43.4-15.5,43.4-42.7c0-40.3-34.6-47-60.6-47l-0.1-2.5c16.4,0,44.3-4.8,44.4-39.3
			c-0.1-24.3-13.8-38.3-39.3-38.2h-14.2v169.7L2815.3,254.1L2815.3,254.1z"/>
		<path class="st0" d="M2964.3,263.9h-58.8l0-2.7h3.4c9.4,0,17-7.5,17.2-16.9V95.2c-0.2-9.3-7.8-16.8-17.2-16.8h-3.4l-0.1-2.7h58.8
			l-0.1,2.7h-3.4c-9.4,0-17,7.4-17.2,16.7v149.2c0.2,9.4,7.8,16.9,17.2,16.9h3.4L2964.3,263.9z"/>
		<path class="st0" d="M3148.7,244.3c5.4,12,15.4,16.9,23.6,16.9h2.2v2.7h-60.5v-2.7h2.4c6.9,0,14.1-6.1,10.2-16.9l-17.2-45.8h-72.4
			l-18,46c-3.8,10.7,3.4,16.7,10.3,16.7h2.4v2.7h-54.1v-2.7h2.4c8.2,0,18.1-4.9,23.6-16.9l60.9-144.7c0,0,9.9-21.8,9.9-27.7h2.4
			L3148.7,244.3z M3106.4,190.6l-32.4-86.3l-33.8,86.3H3106.4z"/>
		<path class="st0" d="M3385.8,75.8l0,2.7h-5c-9,0-16.3,7.1-16.6,16.1v138.9c0,17.3,2.4,34.3,2.4,34.3h-2.4l-146.6-156.4v133.8
			c0.3,8.9,7.6,16.1,16.6,16.1h5l0,2.7h-55.4l0.1-2.7h4.9c9.1,0,16.4-7.2,16.6-16.3V105.3c0-18.4-2.5-33.6-2.5-33.6h2.7L3352,228.1
			V94.8c-0.2-9-7.5-16.3-16.6-16.3h-4.9l-0.1-2.7L3385.8,75.8L3385.8,75.8z"/>
	</g>
	<g>
		<g>
			<path class="st0" d="M1039,348.8c0-30.2,18.3-47.9,52.4-47.9c29.4,0,44.4,11.1,51.2,33.9c0.4,1.3-0.2,2.5-1.7,3.3l-3.5,1.2
				c-1.8,0.4-2.7-0.2-3.3-1.6c-6-19.7-17.9-28.4-42.7-28.4c-28.2,0-43.4,14.4-43.4,39.3v48.1c0,24.7,15.6,39.5,43.4,39.5
				c25.1,0,36.8-9.2,43-29.4c0.6-1.6,1.8-2.1,3.3-1.6l3.7,1.3c1.6,0.6,2.2,1.6,1.6,3.1c-7,23.4-21.8,34.8-51.6,34.8
				c-33.5,0-52.4-17.9-52.4-48.1L1039,348.8L1039,348.8z"/>
			<path class="st0" d="M1264.3,303.6c1.8,0,2.5,0.8,2.5,2.5v133.2c0,1.7-0.8,2.5-2.5,2.5h-4.1c-1.6,0-2.3-0.8-2.3-2.5V376h-82.4
				v63.3c0,1.7-0.8,2.5-2.3,2.5h-4.1c-1.8,0-2.5-0.8-2.5-2.5V306.1c0-1.8,0.8-2.5,2.5-2.5h4.1c1.6,0,2.3,0.8,2.3,2.5v61.6h82.4
				v-61.6c0-1.8,0.8-2.5,2.3-2.5H1264.3z"/>
			<path class="st0" d="M1404.5,439.5c0.6,1.6,0,2.3-2,2.3h-3.5c-2.6,0-4.1-0.8-4.3-2.1l-17.3-43.1h-64.7l-17.1,43.1
				c-0.6,1.3-2,2.1-4.5,2.1h-3.3c-1.8,0-2.3-0.8-1.8-2.3l53.9-134.6c0.6-1.6,1.8-2.3,3.3-2.3h3.9c1.8,0,2.7,0.8,3.3,2.3
				L1404.5,439.5z M1347.2,319.9c-0.4-1.2-1-3.9-1.9-8.4h-0.6c0,2.5-0.6,5.4-1.6,8.4l-27.7,69.2h59.4L1347.2,319.9z"/>
			<path class="st0" d="M1542.3,303.6c1.6,0,2.3,0.8,2.3,2.5v133.2c0,1.7-0.8,2.5-2.3,2.5h-3.9c-1.6,0-2.3-0.8-2.3-2.5v-89.4
				c0-10.9,0.4-21.8,1.4-32.5h-0.4c-4.9,9.9-9.7,19.1-14.6,27.9l-34.7,61.5c-0.6,1.4-1.8,1.9-3.1,1.9h-2.5c-1.8,0-2.7-0.6-3.3-1.9
				l-35.2-62.3c-4.7-8-9.3-16.9-14-27.1h-0.4c0.8,11.5,1.2,22.4,1.2,32.5v89.4c0,1.7-0.8,2.5-2.6,2.5h-3.5c-1.8,0-2.5-0.8-2.5-2.5
				V306.1c0-1.8,0.8-2.5,2.5-2.5h3.1c1.6,0,2.7,0.8,3.7,2.1l52.2,92.1l51.8-91.9c1-1.6,2.1-2.3,3.5-2.3H1542.3z"/>
			<path class="st0" d="M1634.4,303.6c23.4,0,36.6,12.3,36.6,34.9c0,16.6-6.8,27.1-20.3,31.9v0.4c16.6,3.7,24.9,15,24.9,34.3
				c0,23.4-14.6,36.8-38.8,36.8h-57.8c-1.8,0-2.5-0.8-2.5-2.5V306.1c0-1.8,0.8-2.5,2.5-2.5L1634.4,303.6L1634.4,303.6z M1633.4,312
				h-47.9v55.3h47.9c18.1,0,28.4-9.3,28.4-27.9C1661.9,321.5,1651.9,312,1633.4,312z M1636.6,375.4h-51.1v58.1h51.1
				c19.3,0,29.8-10.3,29.8-29.2C1666.3,385.6,1655.8,375.4,1636.6,375.4z"/>
			<path class="st0" d="M1783.2,303.6c1.8,0,2.6,0.8,2.6,2.5v3.5c0,1.6-0.8,2.3-2.6,2.3h-73v55.7h64.7c1.6,0,2.3,0.8,2.3,2.3v3.5
				c0,1.8-0.8,2.5-2.3,2.5h-64.7v57.4h75.8c1.8,0,2.6,0.8,2.6,2.3v3.5c0,1.7-0.8,2.5-2.6,2.5h-82.2c-1.8,0-2.5-0.8-2.5-2.5V306.1
				c0-1.8,0.8-2.5,2.5-2.5L1783.2,303.6L1783.2,303.6z"/>
			<path class="st0" d="M1870.6,303.6c24.8,0,39.5,14.2,39.5,39c0,22-13,35.8-34.3,37.6c6.4,2.7,11.7,8,16,16l21.8,43.2
				c1.2,1.7,0.8,2.5-1.4,2.5h-3.7c-2.5,0-4.3-0.8-4.9-2.1l-20.3-40.1c-6.8-13.2-14.4-18.5-30.2-18.5h-32.1v58.2
				c0,1.7-0.8,2.5-2.3,2.5h-4.1c-1.8,0-2.5-0.8-2.5-2.5V306.1c0-1.8,0.8-2.5,2.5-2.5L1870.6,303.6L1870.6,303.6z M1869.6,312h-48.5
				v60.8h48.5c19.7,0,31.2-10.9,31.2-30.2C1900.7,323.1,1889.3,312,1869.6,312z"/>
			<path class="st0" d="M1980.1,348.9c0-30.2,18.9-48.1,52.6-48.1c33.5,0,52.2,17.9,52.2,48.1v47.5c0,30.2-18.7,48.1-52.2,48.1
				c-33.7,0-52.6-17.9-52.6-48.1V348.9z M2075.9,348.9c0-25.1-15.4-39.7-43.2-39.7c-28.2,0-43.6,14.6-43.6,39.7v47.5
				c0,25.1,15.4,39.7,43.6,39.7c27.9,0,43.2-14.6,43.2-39.7V348.9z"/>
			<path class="st0" d="M2194.7,303.6c1.8,0,2.5,0.8,2.5,2.5v3.5c0,1.6-0.8,2.3-2.5,2.3h-73.1v57.7h63.5c1.8,0,2.5,0.8,2.5,2.5v3.5
				c0,1.6-0.8,2.3-2.5,2.3h-63.5v61.3c0,1.7-0.8,2.5-2.3,2.5h-4.1c-1.8,0-2.6-0.8-2.6-2.5V306.1c0-1.8,0.8-2.5,2.6-2.5L2194.7,303.6
				L2194.7,303.6z"/>
			<path class="st0" d="M2259.7,348.8c0-30.2,18.3-47.9,52.4-47.9c29.4,0,44.4,11.1,51.2,33.9c0.4,1.3-0.2,2.5-1.8,3.3l-3.5,1.2
				c-1.8,0.4-2.7-0.2-3.3-1.6c-6-19.7-17.9-28.4-42.7-28.4c-28.2,0-43.4,14.4-43.4,39.3v48.1c0,24.7,15.6,39.5,43.4,39.5
				c25.1,0,36.8-9.2,43.1-29.4c0.6-1.6,1.8-2.1,3.3-1.6l3.7,1.3c1.6,0.6,2.2,1.6,1.6,3.1c-7,23.4-21.8,34.8-51.6,34.8
				c-33.5,0-52.4-17.9-52.4-48.1L2259.7,348.8L2259.7,348.8z"/>
			<path class="st0" d="M2383.1,348.9c0-30.2,18.9-48.1,52.6-48.1c33.5,0,52.2,17.9,52.2,48.1v47.5c0,30.2-18.7,48.1-52.2,48.1
				c-33.7,0-52.6-17.9-52.6-48.1V348.9z M2479,348.9c0-25.1-15.4-39.7-43.2-39.7c-28.3,0-43.6,14.6-43.6,39.7v47.5
				c0,25.1,15.4,39.7,43.6,39.7c27.8,0,43.2-14.6,43.2-39.7V348.9z"/>
			<path class="st0" d="M2636.2,303.6c1.6,0,2.3,0.8,2.3,2.5v133.2c0,1.7-0.8,2.5-2.3,2.5h-3.9c-1.6,0-2.4-0.8-2.4-2.5v-89.4
				c0-10.9,0.4-21.8,1.4-32.5h-0.4c-4.9,9.9-9.7,19.1-14.6,27.9l-34.6,61.5c-0.6,1.4-1.8,1.9-3.1,1.9h-2.5c-1.8,0-2.7-0.6-3.3-1.9
				l-35.2-62.3c-4.7-8-9.4-16.9-14-27.1h-0.4c0.8,11.5,1.2,22.4,1.2,32.5v89.4c0,1.7-0.8,2.5-2.5,2.5h-3.5c-1.8,0-2.5-0.8-2.5-2.5
				V306.1c0-1.8,0.8-2.5,2.5-2.5h3.1c1.6,0,2.7,0.8,3.7,2.1l52.2,92.1l51.8-91.9c1-1.6,2.2-2.3,3.5-2.3H2636.2z"/>
			<path class="st0" d="M2791,303.6c1.6,0,2.4,0.8,2.4,2.5v133.2c0,1.7-0.8,2.5-2.4,2.5h-3.9c-1.6,0-2.4-0.8-2.4-2.5v-89.4
				c0-10.9,0.4-21.8,1.4-32.5h-0.4c-4.9,9.9-9.7,19.1-14.6,27.9l-34.7,61.5c-0.6,1.4-1.7,1.9-3.1,1.9h-2.6c-1.8,0-2.7-0.6-3.3-1.9
				l-35.2-62.3c-4.7-8-9.3-16.9-14-27.1h-0.4c0.8,11.5,1.1,22.4,1.1,32.5v89.4c0,1.7-0.8,2.5-2.5,2.5h-3.5c-1.8,0-2.6-0.8-2.6-2.5
				V306.1c0-1.8,0.8-2.5,2.6-2.5h3.1c1.6,0,2.7,0.8,3.7,2.1l52.2,92.1l51.8-91.9c1-1.6,2.1-2.3,3.5-2.3H2791z"/>
			<path class="st0" d="M2907.2,303.6c1.8,0,2.5,0.8,2.5,2.5v3.5c0,1.6-0.8,2.3-2.5,2.3h-73.1v55.7h64.7c1.6,0,2.4,0.8,2.4,2.3v3.5
				c0,1.8-0.8,2.5-2.4,2.5h-64.7v57.4h75.8c1.8,0,2.5,0.8,2.5,2.3v3.5c0,1.7-0.8,2.5-2.5,2.5h-82.2c-1.8,0-2.5-0.8-2.5-2.5V306.1
				c0-1.8,0.8-2.5,2.5-2.5L2907.2,303.6L2907.2,303.6z"/>
			<path class="st0" d="M2994.6,303.6c24.7,0,39.5,14.2,39.5,39c0,22-13,35.8-34.3,37.6c6.4,2.7,11.7,8,16,16l21.8,43.2
				c1.2,1.7,0.8,2.5-1.4,2.5h-3.7c-2.6,0-4.3-0.8-4.9-2.1l-20.2-40.1c-6.8-13.2-14.4-18.5-30.2-18.5h-32.1v58.2
				c0,1.7-0.8,2.5-2.4,2.5h-4.1c-1.8,0-2.6-0.8-2.6-2.5V306.1c0-1.8,0.8-2.5,2.6-2.5L2994.6,303.6L2994.6,303.6z M2993.7,312h-48.5
				v60.8h48.5c19.7,0,31.2-10.9,31.2-30.2C3024.8,323.1,3013.3,312,2993.7,312z"/>
			<path class="st0" d="M3056.7,348.8c0-30.2,18.3-47.9,52.4-47.9c29.4,0,44.4,11.1,51.2,33.9c0.4,1.3-0.2,2.5-1.8,3.3l-3.5,1.2
				c-1.8,0.4-2.7-0.2-3.3-1.6c-6-19.7-17.9-28.4-42.7-28.4c-28.2,0-43.4,14.4-43.4,39.3v48.1c0,24.7,15.6,39.5,43.4,39.5
				c25.1,0,36.8-9.2,43.1-29.4c0.6-1.6,1.7-2.1,3.3-1.6l3.7,1.3c1.6,0.6,2.1,1.6,1.6,3.1c-7,23.4-21.8,34.8-51.6,34.8
				c-33.5,0-52.4-17.9-52.4-48.1L3056.7,348.8L3056.7,348.8z"/>
			<path class="st0" d="M3266.2,303.6c1.8,0,2.5,0.8,2.5,2.5v3.5c0,1.6-0.8,2.3-2.5,2.3h-73v55.7h64.7c1.6,0,2.4,0.8,2.4,2.3v3.5
				c0,1.8-0.8,2.5-2.4,2.5h-64.7v57.4h75.8c1.8,0,2.5,0.8,2.5,2.3v3.5c0,1.7-0.8,2.5-2.5,2.5h-82.2c-1.8,0-2.5-0.8-2.5-2.5V306.1
				c0-1.8,0.8-2.5,2.5-2.5L3266.2,303.6L3266.2,303.6z"/>
		</g>
	</g>
	<g>
		<g>
			<path class="st1" d="M2749.9,689.9c-58.8,0-115.6,0-172.5,0c-13.3,0-26.6-0.5-39.9,0.2c-12.3,0.6-19.3-5.2-20.8-16.6
				c-2.6-19-3.5-38.2-6.2-57.1c-1.4-9.6-6.6-18.8-7.1-28.4c-0.4-7,4.1-14.2,6.5-21.3c1.5,0.1,3,0.2,4.5,0.4
				c1.6,10.5,4,20.9,4.8,31.5c1.3,16.6,1.1,33.2,2.4,49.8c1.6,20.6,4.7,23.3,24.7,23.5c23.2,0.2,46.5,0.1,72.9,0.1
				c-17.8-15.4-34.9-25.1-56.8-23c2.4-13.9,15.8-22.7,29.6-17.4c10.4,4,21.4,9.8,28.8,17.8c17.6,19.1,38.1,26.4,63.3,22.8
				c4.7-0.7,9.5-0.1,17.2-0.1c-2.4-8.1-2.4-16.5-6.6-21.1c-8.6-9.6-5.3-16.9,0.9-25c8.1,7,8.1,7,13.3,45.3c9.6,0,19.3,0,30.2,0
				c-2.6-19.6-4.7-38.5-8-57.3c-1.9-10.8-6.9-21.2-8.5-32.1c-1-6.9,1.6-14.4,2.7-21.9c6,3.8,11.3,6.8,16.1,10.2
				c8.2,5.8,2.8,13.1,1.6,19.8c-0.8,4.5-3.2,9.1-2.7,13.4c2.9,24.9,6.5,49.7,9.6,74.6C2750.4,681.4,2749.9,685.1,2749.9,689.9z"/>
			<path class="st1" d="M1740.1,689.9c-34.9,0-68.8,0-102.7,0c-3.7,0-7.4,0.4-11.1-0.1c-7.3-0.9-10.6,1.5-13.1,9.1
				c-12.3,36.7-51,48.3-81.6,23.3c18.9,5.7,37.3,6.6,53-6.7c8.3-7,15.4-15.3,23.4-23.3c-2.5-1.5-3-2.1-3.7-2.2
				c-23.9-4.3-31.8-24.2-16.5-43.5c2.9-3.7,9.4-7.2,13.8-6.6c4.3,0.6,9.3,5.8,11.3,10.2c2.7,6.2,2.8,13.6,4.2,21.1
				c21.7,0,43.3,0,66,0c-1.1-2.3-1.5-4.9-3.1-6.4c-11.5-11.3-20.9-25.2-39.5-26.8c-9.8-0.8-19.4-15.3-16.5-25
				c2.5-8.4,6.2-19,12.9-23.2c15.2-9.8,32.6-16.3,49.5-24.4c3.5,13,2.3,20.1-10.7,23.3c-13.4,3.3-26,9.5-41.4,15.3
				c5.2,4.8,8.1,7.9,11.5,10.4c19.3,14.6,36.8,30.7,49.3,51.8c1.6,2.6,5.5,5.1,8.5,5.4c8,0.7,16.1,0.2,26.2,0.2
				c-1.2-8.6-2.2-16.1-3.2-23.5c-2.6-18.6-3.3-37.8-8.5-55.7c-3.4-11.6-6.5-21.6-0.7-33.2c3,2.7,5.5,5.9,8.8,7.8
				c10.9,6.5,12.1,12.7,5.8,24.2c-2,3.6-1.6,8.9-1.1,13.3c3.1,25.2,6.6,50.4,9.8,75.6C1740.9,683,1740.4,685.6,1740.1,689.9z
				 M1608.6,671.8c-2-8.3-3.3-15.5-12.6-15c-1.8,0.1-5.2,4.2-4.9,5.8C1593.1,670.9,1599.7,672.1,1608.6,671.8z"/>
			<path class="st1" d="M1173.2,656.1c-10.2,11.8-22.7,9.8-35.2,7.5c-9.6-1.7-12.1-5.8-6-13.3c7.1-8.7,16.2-15.8,25.2-22.8
				c5.7-4.4,13.2-6,10.7-16.2c-0.8-3.2,3.1-7.6,7.3-11.2c2.3,11.7,4.6,23.3,6.8,34.9c0.9,4.7,1.5,9.5,2.5,14.2
				c4.5,22.4,4.5,22.4,26.7,22.7c11.8,0.2,23.6,0,35.5-0.1c1.1,0,2.1-0.5,5.6-1.5c-2-6.8-2.1-15.2-6.3-19.9
				c-8.7-9.8-4.6-16.9,1.4-25.2c14.2,12.6,10.5,30,13,46.1c13.9,0,27.4,0,43.8,0c-2.2-7.5-2.2-15.9-6.4-20.5
				c-8.6-9.6-5.3-16.9,1.3-25.4c14.4,12.2,10.7,29.4,12.5,45.6c13,2,22.7-2.7,31.3-11.9c7.5-8,15.9-15.2,24.3-22.2
				c4.9-4.1,8.8-2.8,12.5,3c10.9,17.1,13.9,27.8,11.9,48.9c-13.2,3.1-24.9-1.4-36.6-7c-3-1.4-7.6-0.4-11.1,0.6
				c-7.7,2.1-15.1,7-22.6,7.1c-41,0.7-82,0.7-122.9,0c-5.4-0.1-12.3-4.7-15.5-9.4C1178.1,673.6,1176.6,665.2,1173.2,656.1z
				 M1377.4,670.8c1.1-1.3,2.2-2.5,3.4-3.8c-4.4-5.8-8.7-11.6-13-17.3c-3.7,3-7.3,5.9-13.1,10.7
				C1364.1,664.7,1370.8,667.7,1377.4,670.8z M1169.2,632.5c-7.3,5.2-13.2,9.5-20.8,14.9C1167,652.6,1173.1,648.3,1169.2,632.5z"/>
			<path class="st1" d="M2216.7,557.5c6.1,5.2,8.8,8.3,12.1,10.2c10.2,5.9,12.1,14,5.6,23.6c-1.5,2.2-2.1,5.7-1.8,8.4
				c3.1,26,6.6,51.9,9.8,77.9c0.4,3.6,0.1,7.3,0.1,13.1c-28.5-4.8-58.2,8.9-81.6-10.9c-13.1,3.6-25.1,6.5-36.9,10.2
				c-3.1,1-7,3.7-7.9,6.5c-10.3,31.4-41.5,47.8-72.6,37.7c-7.1-2.3-14.1-5.3-21.1-7.9c0.2-1.1,0.5-2.3,0.7-3.4
				c4.3,0.4,8.7,0.4,12.9,1.3c27.9,5.4,58.6-10.3,70.5-36.1c5.7-12.5,1.6-23.8-6.2-32.9c-7.5-8.7-5.3-15.6-0.1-24.2
				c13.8,10.1,16.6,24.6,16.9,42.5c12-2.8,22.6-5.4,33.3-7.9c0.2-1.7,0.4-3.4,0.6-5.2c-5.7-2.1-11.4-4.2-18.4-6.7
				c-2-13.5,3-20.3,18.9-21c6.2-0.3,12.6,0,18.7,1.3c16.1,3.4,19.3,14.2,8.3,26.2c-1.7,1.9-3.4,3.7-6.7,7.2
				c19.9,8.7,39.2,2.9,60,5.3c-1.6-12.3-2.9-23.1-4.3-33.8c-1.8-13.5-3.4-27.1-5.7-40.5c-0.8-4.8-4.2-9.3-4.7-14.1
				C2216.1,576,2216.7,568,2216.7,557.5z"/>
			<path class="st1" d="M2988.3,721.8c4.5,0.8,9,1.5,13.5,2.3c27,5.3,59.5-12,69.7-37.4c4.9-12,1.1-23.2-6.6-31.9
				c-7.6-8.7-5.2-15.6-0.1-24.2c13.9,10.1,16.6,24.6,16.9,40.6c5,0,9.2,0,11.1,0c1-12.3,0.2-24.7,3.6-35.8
				c1.7-5.5,10.6-10.1,17.1-12.4c19-7,35.4-0.4,45.8,17.7c-7-0.9-13.3-1.9-19.6-2.3c-5.5-0.3-11.1-0.7-16.5,0.2
				c-7.9,1.3-18.8,0.1-18.3,12.6c0.4,9.9,15.2,20.1,25.1,18.1c15.8-3.2,31.4-6.9,47.9-10.5c-1.7,11.8-5.5,20.2-18.2,21.8
				c-23,2.9-45.9,6.4-68.9,9.1c-5.7,0.7-8.8,1-10.7,7.7c-8.3,29.1-41.1,46.3-69.8,37.2c-7.8-2.5-15.5-5.5-23.2-8.3
				C2987.4,724.8,2987.9,723.3,2988.3,721.8z"/>
			<path class="st1" d="M1958.1,671.8c-2.6-8.6-2.7-16.3-6.6-20.6c-8.3-9.2-6.4-16.8,1-25.8c14,12.2,10.9,29.2,12.7,45.5
				c13.8,0,27.6,0,44,0c-2.2-7.3-2.3-15.6-6.5-20.3c-8.6-9.6-5.2-16.9,1.8-25.8c17.1,19.1,9.4,42,11.9,64.9c-5,0-8.9,0-12.8,0
				c-31.4,0-62.8,0-94.1,0c-17.2,0-21.1-2.7-26.2-19c-1.4-4.5-2.5-9.1-4.1-15.1c-10.8,11.8-23.4,9.8-36.3,7.9
				c-9.3-1.4-11-6.9-5.9-12.8c7.3-8.5,15.9-16.1,24.9-23c6-4.6,13.7-6.5,11.4-17c-0.7-3.2,3.2-7.5,7.4-10.9c2.8,15,5.6,30,8.5,45
				c0.9,4.7,2,9.3,3,14.1c2,9.1,6.2,13.7,16.9,12.9C1924.2,670.9,1939.7,671.8,1958.1,671.8z M1877.2,636.1
				c-1.3-0.9-2.6-1.7-3.9-2.6c-6.1,4.1-12.1,8.3-18.2,12.4c0.6,1.5,1.2,3.1,1.8,4.6c5.6-1.1,11.7-1.3,16.6-3.8
				C1875.9,645.5,1876,639.8,1877.2,636.1z"/>
			<path class="st1" d="M2887.9,655.9c-10.8,12.7-23.8,9.3-36.6,7.6c-7.9-1.1-9.9-6.4-5.4-11.5c7.9-9,16.8-17.4,26.3-24.5
				c6.1-4.5,11.9-7.3,10.6-16.6c-0.5-3.5,3.1-7.6,7.2-11.1c2.8,15.1,5.8,30.2,8.4,45.3c4.6,26.4,4.6,26.7,31,26.8
				c12.9,0.1,25.7,0,39.9,0c-0.4-5.5-0.8-10-1.2-15.7c-5.2,0.9-9.4,1.7-13.7,2.2c-13.6,1.4-21.4-5.5-20.3-19.1
				c0.6-7.2,1.6-15.1,5-21.2c2.8-5.1,9.1-11.2,14.1-11.4c5.1-0.3,12.2,4.9,15.5,9.8c4.1,6.2,6.6,14.2,7.4,21.7
				c1.9,16.7,2.2,33.6,3.3,51.5c-25.2,0-48.4,0.4-71.4-0.4c-3.9-0.2-8.9-5.2-11.1-9.3C2893.1,673,2891.1,665,2887.9,655.9z
				 M2864.6,645.9c0.6,1.6,1.3,3.2,1.9,4.7c5.9-1.4,12.2-1.8,17.4-4.5c2.1-1.1,1.8-7,2.6-10.7c-1.1-0.6-2.2-1.3-3.3-2
				C2876.9,637.6,2870.7,641.7,2864.6,645.9z M2958.6,639.9c1-2.2,2.1-4.4,3.1-6.5c-4.8-2.6-9.7-5.1-14.6-7.7
				c-0.9,3.2-3.1,8.8-2.6,9.1C2949,637.1,2953.9,638.3,2958.6,639.9z"/>
			<path class="st1" d="M1525.9,689.9c-13,0-24.1,0.3-35.1-0.1c-5.7-0.2-8.1,1.6-9.9,7.4c-7.4,23.4-23.7,38.8-42.3,37.9
				c-13.6-0.7-27.1-5.1-39.9-9.9c14.3-1.2,29.9,0.8,42.6-4.3c12.8-5.2,22.8-17.5,33.8-26.5c-2.2-3.1-2.5-4-2.9-4.1
				c-24.3-4.2-32.5-23.3-17.6-43.1c3-4,9.9-7.5,14.6-7.1c4.1,0.4,9.1,6,11,10.5c2.6,6.3,2.7,13.6,3.9,20.9c10.1,0,19.9,0,31,0
				c-2.7-19.7-4.7-38.7-8-57.4c-1.9-10.9-6.9-21.2-8.5-32.1c-1-6.9,1.6-14.4,2.6-21.9c6.1,3.8,11.3,6.8,16.1,10.2
				c8.2,5.8,2.8,13.1,1.6,19.8c-0.8,4.5-3.3,9.1-2.7,13.4c2.9,24.9,6.4,49.7,9.7,74.6C1526.3,681.4,1525.9,685,1525.9,689.9z
				 M1475.6,671.8c-2-8.3-3.3-15.5-12.5-15c-1.8,0.1-5.3,4.2-4.9,5.8C1460.1,670.9,1466.7,672.1,1475.6,671.8z"/>
			<path class="st1" d="M2481.2,631.2c21.4,17.9,23.9,63.3,4.6,84.6c-24.1,26.8-59.4,30.3-83.9,6c6.9,1,11.3,1.5,15.6,2.4
				c27.2,5.4,58-10.6,69.6-35.9c5.4-11.9,2.2-22.9-5.2-32.1C2474.9,647.5,2474.2,640.1,2481.2,631.2z"/>
			<path class="st1" d="M2359.3,629c7.8,4.3,14,7.4,20,11c15.1,9.2,19.2,23.5,11.6,38.7c-5.6,11.2-23.3,17.2-36.8,12.5
				c-7.3-2.6-10.9-7.7-8.8-15.4C2349.6,660.7,2354.3,645.8,2359.3,629z M2386.1,666.2c-7.8-5.1-14.6-9.6-21.6-14.1
				c-6.2,6.7-12.8,12.1-5.8,20.6C2363.7,678.9,2374.2,676.8,2386.1,666.2z"/>
			<path class="st1" d="M1765.4,690.4c-3-31.5-6.5-63-8.6-94.5c-0.6-9.2,2.5-18.8,3.9-28.2c1.9,0.2,3.8,0.3,5.7,0.4
				C1766.7,609.1,1784.3,649.8,1765.4,690.4z"/>
			<path class="st1" d="M2268.9,568.3c2.8,31.8,6.3,63.6,8,95.5c0.5,8.9-4.1,18.1-6.4,27.2c-1.1-0.2-2.2-0.3-3.4-0.5
				c-0.9-13.2-1.4-26.4-2.6-39.6c-1.8-19.5-4.9-38.8-5.8-58.3c-0.4-8.2,3.1-16.6,4.8-24.8C2265.2,567.9,2267,568.1,2268.9,568.3z"/>
			<path class="st1" d="M2775.7,568.3c2.7,27,6.4,54,7.7,81.1c0.6,12.4-3.3,25.1-5.3,37.6c-0.2,1.6-1.8,2.9-4,6.2
				c-0.6-13.5-0.8-25-1.8-36.4c-1.7-19.8-3.5-39.7-6.2-59.4C2764.5,586.4,2766.4,577.1,2775.7,568.3z"/>
			<path class="st1" d="M1275.4,720.7c2.9-5.6,5.2-10.1,8-15.4c5.9,3.1,11.1,5.9,17.2,9.1c-2.9,5.3-5.3,9.7-8.1,14.9
				C1286.8,726.5,1281.8,723.9,1275.4,720.7z"/>
			<path class="st1" d="M2005.7,714.6c-3.1,5.5-5.5,9.9-8.3,14.7c-5.8-3-10.9-5.6-16.8-8.6c2.7-5.3,4.9-9.8,7.8-15.5
				C1994.5,708.5,1999.9,711.4,2005.7,714.6z"/>
			<path class="st1" d="M1157,574c2.8-4.7,5.6-9.3,8.9-15c5.5,3,10.8,5.8,17,9c-2.9,5.2-5.4,9.5-8.4,14.8c-6.3-3.2-12-6.2-17.8-9.1
				L1157,574z"/>
			<path class="st1" d="M1862.2,574c2.8-4.7,5.6-9.3,8.9-15c5.6,3,10.8,5.8,17,9c-3,5.2-5.4,9.5-8.5,14.8c-6.3-3.2-12-6.2-17.7-9.1
				L1862.2,574z"/>
			<path class="st1" d="M2880.3,558.8c6.5,3.4,11.3,6,17.1,9c-2.7,5.1-5,9.5-7.9,15c-5.6-2.9-10.6-5.5-16.8-8.7
				C2875.3,569,2877.6,564.3,2880.3,558.8z"/>
			<path class="st1" d="M2940.4,583c2.8-5.2,5.1-9.7,8-15.3c5.7,3,11,5.8,17,8.9c-2.8,5.2-5.1,9.7-8,15.3
				C2951.7,588.9,2946.4,586.1,2940.4,583z"/>
			<path class="st1" d="M1156.7,573.7c-1.1,6-2.2,11.9-3.6,19.4c-7.6-3.9-12.6-6.5-18.6-9.6c2.8-5.5,5.2-10.2,7.4-14.5
				c5.7,1.9,10.4,3.5,15.1,5C1157,574,1156.7,573.7,1156.7,573.7z"/>
			<path class="st1" d="M1861.9,573.7c-1.1,6-2.2,11.9-3.6,19.4c-7.6-3.9-12.6-6.5-18.6-9.6c2.8-5.5,5.2-10.2,7.4-14.5
				c5.7,1.9,10.4,3.5,15.1,5C1862.2,574,1861.9,573.7,1861.9,573.7z"/>
			<path class="st1" d="M2865.4,592.1c-6-3.3-10.8-5.9-16.2-8.9c2.6-5.1,4.8-9.6,7.5-15c5.8,2.9,11.2,5.5,17.5,8.7
				C2871.1,582.5,2868.2,587.3,2865.4,592.1z"/>
			<path class="st1" d="M3128.4,610c-6.5-3.4-11.3-5.9-16.8-8.8c2.9-5.5,5.3-10.1,8.1-15.3c6,3.2,11,5.9,16.9,9
				C3133.6,600.3,3131.1,605,3128.4,610z"/>
			<path class="st1" d="M1941.7,720.6c0.9-6.3,1.9-12.6,3.1-20.7c7.8,4,12.9,6.5,19.2,9.7c-2.6,5.2-5,9.8-7.1,13.9
				c-5.8-1.2-10.5-2.1-15.2-3.1L1941.7,720.6z"/>
			<path class="st1" d="M1236.5,720.6c0.9-6.3,1.9-12.6,3.1-20.7c7.8,4,12.9,6.5,19.1,9.7c-2.6,5.2-5,9.8-7.1,13.9
				c-5.8-1.2-10.5-2.1-15.2-3.1V720.6z"/>
			<path class="st1" d="M2683.9,597.5c1.7-5.6,3.4-11.2,5.4-18.2c7,3.8,12,6.4,17.9,9.6c-2.8,5.2-5.2,9.8-7.7,14.4
				c-6-2.3-11-4.2-16-6.1L2683.9,597.5z"/>
			<path class="st1" d="M2683.6,597.2c-2.3,5.2-4.6,10.4-7.3,16.4c-6.3-3.4-11.3-6.1-17.1-9.3c2.6-5.1,4.9-9.5,7.6-14.6
				c6,2.8,11.6,5.3,17.1,7.8L2683.6,597.2z"/>
			<path class="st1" d="M2362.1,601.4c1.6-5,3.1-9.9,5.2-16.4c6.7,3.5,12,6.2,18.1,9.4c-2.8,5.2-5.1,9.6-7.9,15
				c-5.6-3-10.6-5.6-15.6-8.3L2362.1,601.4z"/>
			<path class="st1" d="M2361.9,601.2c-2.3,5.7-4.7,11.4-7.3,17.9c-6.4-3.3-11.6-5.9-17.4-8.9c2.6-5.2,4.8-9.7,7.2-14.4
				c6.2,2,12,3.8,17.8,5.7L2361.9,601.2z"/>
			<path class="st1" d="M1941.7,720.5c-3.2,4.2-6.3,8.5-9.9,13.2c-5.1-2.7-10.2-5.3-16.1-8.3c2.7-5.2,5.1-9.7,8.1-15.4
				c6.2,3.7,12.1,7.2,17.9,10.6C1941.7,720.6,1941.7,720.5,1941.7,720.5z"/>
			<path class="st1" d="M1236.5,720.5c-3.2,4.2-6.3,8.5-9.9,13.2c-5.1-2.7-10.2-5.3-16.1-8.3c2.7-5.2,5.1-9.7,8.1-15.4
				c6.2,3.7,12.1,7.2,17.8,10.6V720.5z"/>
			<path class="st1" d="M2579.5,717.8c2.8-5.3,5.2-9.8,8.1-15.3c5.6,3,10.6,5.7,16.6,8.9c-2.5,4.9-4.7,9.4-7.6,15
				C2590.8,723.5,2585.4,720.8,2579.5,717.8z"/>
		</g>
	</g>
	<g>
		
			<linearGradient id="SVGID_1_" gradientUnits="userSpaceOnUse" x1="157.6205" y1="-75.7556" x2="860.921" y2="-75.7556" gradientTransform="matrix(1 0 0 -1 0 312)">
			<stop  offset="0.2634" style="stop-color:#BD9B48"/>
			<stop  offset="0.4213" style="stop-color:#C7A44A"/>
			<stop  offset="0.5968" style="stop-color:#D5B14E"/>
		</linearGradient>
		<path class="st2" d="M853.3,333.9c33.8,139.2-47.7,300.9-182,367.7c-149.4,74.3-323,40.1-429.5-84.5
			c-106.6-124.8-112.2-304.2-15.6-439.7C306.8,64.5,461.8,16.1,548.3,41.8c-92.8,17-162.2,60.9-207.5,139.1
			c-25.6,44.2-40.6,93.1-34.6,143c17.8,147.1,104.5,240.8,231,259.5c50.9,7.5,99.2,1,146-18.7c47.8-20.1,86.4-52,116.8-94.2
			C829.5,429.7,844.2,383.1,853.3,333.9z"/>
		
			<linearGradient id="SVGID_2_" gradientUnits="userSpaceOnUse" x1="556.59" y1="51.3" x2="724.41" y2="51.3" gradientTransform="matrix(1 0 0 -1 0 312)">
			<stop  offset="0.2634" style="stop-color:#BD9B48"/>
			<stop  offset="0.4213" style="stop-color:#C7A44A"/>
			<stop  offset="0.5968" style="stop-color:#D5B14E"/>
		</linearGradient>
		<path class="st3" d="M584.5,337.1c5.6-15.8,10.8-31.9,17-47.5c3.1-7.8,1.6-12.6-5.2-17.5c-13.6-9.7-26.6-20.2-39.8-30.3
			c0.6-1.4,1.2-2.7,1.8-4.1c16.2,0.3,32.4-0.1,48.5,1.2c10.5,0.8,15.4-2.3,18.4-12.7c4.4-15.6,10.8-30.6,16.4-45.8
			c1.1,0,2.3,0.1,3.4,0.1c4.7,16,10,31.9,13.8,48.2c2.2,9.5,6.8,12.3,16,11.9c16-0.7,32-0.4,47.9-0.6c0.6,1.1,1.1,2.3,1.7,3.4
			c-16.9,11.9-33.8,23.8-51.3,36.2c5.8,19.6,11.7,39.3,17.6,59c-1,0.8-2.1,1.7-3.2,2.5c-12.2-9.3-24.9-18-36.3-28.2
			c-8.9-8-15.7-7.2-24.7-0.4c-12.5,9.7-26,18.1-39.1,27.1C586.5,338.7,585.5,337.9,584.5,337.1z"/>
	</g>
	
		<linearGradient id="SVGID_3_" gradientUnits="userSpaceOnUse" x1="1038.8" y1="-185.88" x2="3271.75" y2="-185.88" gradientTransform="matrix(1 0 0 -1 0 312)">
		<stop  offset="0.2634" style="stop-color:#BD9B48"/>
		<stop  offset="0.4213" style="stop-color:#C7A44A"/>
		<stop  offset="0.5968" style="stop-color:#D5B14E"/>
	</linearGradient>
	<line class="st4" x1="1038.8" y1="497.9" x2="3271.8" y2="497.9"/>
</g>
</svg>
